<?xml version="1.0" encoding="utf-8"?>
<!-- Generator: Adobe Illustrator 16.0.3, SVG Export Plug-In . SVG Version: 6.00 Build 0)  -->
<!DOCTYPE svg PUBLIC "-//W3C//DTD SVG 1.1//EN" "http://www.w3.org/Graphics/SVG/1.1/DTD/svg11.dtd">
<svg version="1.1" xmlns="http://www.w3.org/2000/svg" xmlns:xlink="http://www.w3.org/1999/xlink" x="0px" y="0px" width="269.5px"
	 height="218px" viewBox="0 0 269.5 218" enable-background="new 0 0 269.5 218" xml:space="preserve">
<g id="Capa_1">
	<g>
		<g>
			<defs>
				<path id="SVGID_1_" d="M82.804,66.814c-22.065,26.004-18.873,64.941,7.122,87.029c1.86,1.562,3.765,3.027,5.748,4.324
					c17.665,11.817,39.759,13.379,58.533,5.358c-17.271,3.371-35.796-0.672-50.495-12.451c-0.423-0.366-0.859-0.71-1.288-1.059
					c-19.069-16.208-25.854-41.512-19.386-64.122c-4.282,21.341,2.83,44.247,20.584,59.323c0.992,0.864,2.021,1.664,3.079,2.439
					c21.352-25.968,17.994-64.372-7.731-86.227c-0.438-0.362-0.88-0.705-1.321-1.048c-0.573-0.494-1.166-0.959-1.777-1.41
					c-0.896-0.654-1.767-1.283-2.684-1.865C89.46,59.867,85.948,63.111,82.804,66.814"/>
			</defs>
			<clipPath id="SVGID_2_">
				<use xlink:href="#SVGID_1_"  overflow="visible"/>
			</clipPath>
			
				<linearGradient id="SVGID_3_" gradientUnits="userSpaceOnUse" x1="-56.6565" y1="-317.3486" x2="-51.8425" y2="-317.3486" gradientTransform="matrix(10.6737 -12.572 12.572 10.6737 4674.4902 2821.6296)">
				<stop  offset="0" style="stop-color:#1D5632"/>
				<stop  offset="0.382" style="stop-color:#1D5632"/>
				<stop  offset="0.8596" style="stop-color:#83A089"/>
				<stop  offset="1" style="stop-color:#83A089"/>
			</linearGradient>
			<polygon clip-path="url(#SVGID_2_)" fill="url(#SVGID_3_)" points="4.279,123.609 99.891,10.994 210.663,105.046 115.051,217.66 
							"/>
		</g>
	</g>
	<g>
		<g>
			<defs>
				<path id="SVGID_4_" d="M26.058,112.854c-0.556,0-1.128,0.021-1.707,0.063c-0.818,0.062-1.631,0.127-2.431,0.239
					c-0.817,3.403-1.222,6.967-1.222,10.633c0,25.723,20.814,46.533,46.519,46.533c1.823,0,3.629-0.104,5.414-0.335
					c15.894-1.827,29.375-11.682,36.229-25.459c-8.283,10.365-20.896,17.072-35.082,17.474c-0.409,0-0.823,0.014-1.25,0.014
					c-18.859,0-35.09-11.239-42.4-27.381c7.944,14.359,23.203,24.058,40.746,24.058c0.979,0,1.965-0.052,2.961-0.095
					c-0.403-25.354-21.068-45.789-46.5-45.789C26.904,112.807,26.498,112.83,26.058,112.854"/>
			</defs>
			<clipPath id="SVGID_5_">
				<use xlink:href="#SVGID_4_"  overflow="visible"/>
			</clipPath>
			
				<linearGradient id="SVGID_6_" gradientUnits="userSpaceOnUse" x1="-52.6057" y1="-310.0649" x2="-47.7906" y2="-310.0649" gradientTransform="matrix(0 -12.4303 12.4303 0 3918.968 -482.8754)">
				<stop  offset="0" style="stop-color:#1D5632"/>
				<stop  offset="0.382" style="stop-color:#1D5632"/>
				<stop  offset="0.8596" style="stop-color:#83A089"/>
				<stop  offset="1" style="stop-color:#83A089"/>
			</linearGradient>
			<rect x="20.698" y="112.807" clip-path="url(#SVGID_5_)" fill="url(#SVGID_6_)" width="88.162" height="57.515"/>
		</g>
	</g>
	<g>
		<g>
			<defs>
				<path id="SVGID_7_" d="M134.343,10.595c-22.146,2.565-45.88,15.127-61.405,41.751c10.741-11.954,29.906-21.727,41.493-24.932
					c-10.689,15.117-10.719,28.726-1.152,42.446c3.493,5.012,7.47,9.566,5.035,13.952c-2.209,4.005,12.334,22.455,9.853,22.605
					c-1.531,0.1,1.261,29.916,0.799,31.133c4.912,9.942,27.818-22.76,18.188-33.153c-0.917-5.933-4.367-11.577-4.433-17.379
					c-0.104-6.374-9.186-11.027-8.113-18.083c-5.758-5.053-15.357-6.152-9.558-14.262c3.996-5.584,10.525-4.508,13.671-2.623
					c9.988,6.025,4.715,19.414,10.073,23.118c4.429,3.064,11.479-1.702,14.723-6.031c-0.556-4.56-2.491-4.757-0.63-7.375
					c2.05-2.862,6.58-2.261,11.027-1.659c4.273,0.584,8.466,1.161,10.328-1.34c4.348-5.861-12.415-19.705-5.608-25.482
					c2.098-1.823,7.451,0.832,9.815,2.313c8.114,5.095,15.682,14.445,17.985,19.743c2.463,5.631,1.325,18.822-5.255,26.592
					c-4.104,4.842-12.853,5.147-17.618,4.325c-2.803-0.479-5.66-2.463-9.571-2.656c-5.8-0.301-13.373,4.621-13.594,10.056
					c-0.142,2.595,2.679,5.335,3.958,7.851c1.522,2.975,2.369,5.795,1.382,8.456c-0.667,1.739-3.723,4.329-4.221,6.798
					c-0.396,2.039,0.827,5.494,2.152,7.479c1.523,2.271,4.71,3.487,6.421,6.012c1.43,2.092,1.753,7.191-0.897,9.346
					c-1.264,1.033-3.305,0.864-5.435,0.677c-3.417-0.286-7.084-0.568-8.269,4.048c0.357,3.285,3.869,4.603,2.468,7.724
					c-0.917,2.102-4.733,2.994-6.426,5.58c-1.495,2.298-0.733,3.041-1.344,5.833c-12.758,0.366-33.76-0.827-46.472-12.377
					c-0.836,1.479-4.456,1.07-8.09,0.667c-3.244-0.366-6.501-0.732-7.761,0.269c20.89,19.277,53.137,23.344,70.031,20.594
					c16.522-2.685,34.179-10.967,48.397-26.99c25.027-28.205,24.453-67.277,9.9-93.291c-5.208-9.299-13.848-21.139-24.97-27.801
					c-16.283-9.739-31.57-14.496-47.374-14.496C140.712,10.025,137.543,10.219,134.343,10.595"/>
			</defs>
			<clipPath id="SVGID_8_">
				<use xlink:href="#SVGID_7_"  overflow="visible"/>
			</clipPath>
			
				<linearGradient id="SVGID_9_" gradientUnits="userSpaceOnUse" x1="-70.7493" y1="-304.0771" x2="-65.9369" y2="-304.0771" gradientTransform="matrix(26.8626 20.8078 20.8078 -26.8626 8310.1309 -6657.4561)">
				<stop  offset="0" style="stop-color:#1D5632"/>
				<stop  offset="0.382" style="stop-color:#1D5632"/>
				<stop  offset="0.8596" style="stop-color:#83A089"/>
				<stop  offset="1" style="stop-color:#83A089"/>
			</linearGradient>
			<polygon clip-path="url(#SVGID_8_)" fill="url(#SVGID_9_)" points="-7.101,113.357 171.924,252.027 311.353,72.023 
				132.33,-66.647 			"/>
		</g>
	</g>
</g>
<g id="Capa_2">
	
		<radialGradient id="SVGID_10_" cx="133.2473" cy="191.1299" r="122.1269" gradientTransform="matrix(1 0 0 0.1382 0 164.7127)" gradientUnits="userSpaceOnUse">
		<stop  offset="0" style="stop-color:#8B8A8A"/>
		<stop  offset="1" style="stop-color:#9C9B9B;stop-opacity:0"/>
	</radialGradient>
	<ellipse fill="url(#SVGID_10_)" cx="133.247" cy="191.13" rx="121.611" ry="16.838"/>
</g>
</svg>
